<svg width="25" height="25" viewBox="0 0 25 25" fill="none" xmlns="http://www.w3.org/2000/svg">
<path d="M15.6251 18.75V19.5312C15.6251 20.3601 15.2958 21.1549 14.7098 21.741C14.1237 22.327 13.3289 22.6562 12.5001 22.6562C11.6713 22.6562 10.8764 22.327 10.2904 21.741C9.7043 21.1549 9.37506 20.3601 9.37506 19.5312V18.75M20.8829 17.1597C19.629 15.625 18.7437 14.8438 18.7437 10.6128C18.7437 6.73828 16.7652 5.35791 15.1368 4.6875C14.9205 4.59863 14.7169 4.39453 14.6509 4.17236C14.3653 3.2002 13.5645 2.34375 12.5001 2.34375C11.4356 2.34375 10.6343 3.20068 10.3516 4.17334C10.2857 4.39795 10.0821 4.59863 9.86578 4.6875C8.23541 5.35889 6.25885 6.73438 6.25885 10.6128C6.25641 14.8438 5.37115 15.625 4.11725 17.1597C3.59771 17.7954 4.05279 18.75 4.96148 18.75H20.0435C20.9473 18.75 21.3995 17.7925 20.8829 17.1597Z" stroke="#192C4A" stroke-linecap="round" stroke-linejoin="round"/>
</svg>
