<svg width="1060" height="581" viewBox="0 0 1060 581" fill="none" xmlns="http://www.w3.org/2000/svg">
<path d="M535.752 81.1694C589.296 114.317 728.954 114.566 772.869 81.1694C801.826 59.1479 828.587 46.2481 866.869 21.5C916.369 -10.5 940.119 -7.78458 987.325 37.3816C1009.4 58.5 1010.07 111.312 1040.87 128.5C1071.67 145.688 1057.45 216.625 1040.87 270.643C1024.28 324.662 1024.85 323.521 1040.87 388.5C1049.87 425 1040.87 506.5 987.325 515.5C963.449 519.513 923.385 525.657 838.129 530.5C756.547 535.134 696.629 514.5 655.629 494.5C614.629 474.5 481.129 537 395.869 521.5C325.137 508.641 251.129 541.5 222.129 566C171.177 609.045 85.1176 547.13 54.629 530.5C-11.371 494.5 18.6289 404.5 18.629 386.5C18.629 308.167 -45.5624 165.519 64.3694 111.5C174.301 57.4815 177.584 73.0153 231.369 54C288.997 33.6263 482.208 48.0216 535.752 81.1694Z" fill="white"/>
</svg>
