<svg width="23" height="23" viewBox="0 0 23 23" fill="none" xmlns="http://www.w3.org/2000/svg">
<path d="M7.90625 18.6875V21.5625M3.59375 1.4375H12.2188C12.6 1.4375 12.9656 1.58895 13.2352 1.85853C13.5048 2.12812 13.6562 2.49375 13.6562 2.875V21.3828C13.6562 21.4305 13.6373 21.4762 13.6036 21.5099C13.5699 21.5436 13.5242 21.5625 13.4766 21.5625H2.15625V2.875C2.15625 2.49375 2.3077 2.12812 2.57728 1.85853C2.84687 1.58895 3.2125 1.4375 3.59375 1.4375V1.4375ZM14.375 8.625H19.4062C19.7875 8.625 20.1531 8.77645 20.4227 9.04603C20.6923 9.31562 20.8438 9.68125 20.8438 10.0625V21.5625H13.6562V9.34375C13.6562 9.15313 13.732 8.97031 13.8668 8.83552C14.0016 8.70073 14.1844 8.625 14.375 8.625Z" stroke="white" stroke-linecap="round" stroke-linejoin="round"/>
<path d="M4.40595 19.4004C4.25709 19.4199 4.10588 19.3923 3.97352 19.3214C3.84117 19.2506 3.73432 19.14 3.66798 19.0054C3.60164 18.8707 3.57913 18.7186 3.60362 18.5705C3.62811 18.4224 3.69836 18.2857 3.80451 18.1795C3.91067 18.0734 4.0474 18.0031 4.19551 17.9786C4.34363 17.9541 4.49569 17.9766 4.63037 18.043C4.76504 18.1093 4.87556 18.2162 4.94641 18.3485C5.01726 18.4809 5.04489 18.6321 5.02543 18.781C5.00488 18.938 4.93301 19.084 4.82098 19.196C4.70895 19.308 4.56305 19.3799 4.40595 19.4004ZM4.40595 15.8067C4.25709 15.8261 4.10588 15.7985 3.97352 15.7277C3.84117 15.6568 3.73432 15.5463 3.66798 15.4116C3.60164 15.2769 3.57913 15.1249 3.60362 14.9768C3.62811 14.8286 3.69836 14.6919 3.80451 14.5858C3.91067 14.4796 4.0474 14.4094 4.19551 14.3849C4.34363 14.3604 4.49569 14.3829 4.63037 14.4492C4.76504 14.5156 4.87556 14.6224 4.94641 14.7548C5.01726 14.8871 5.04489 15.0383 5.02543 15.1872C5.00488 15.3443 4.93301 15.4902 4.82098 15.6022C4.70895 15.7143 4.56305 15.7861 4.40595 15.8067ZM4.40595 12.2129C4.25709 12.2324 4.10588 12.2048 3.97352 12.1339C3.84117 12.0631 3.73432 11.9525 3.66798 11.8179C3.60164 11.6832 3.57913 11.5311 3.60362 11.383C3.62811 11.2349 3.69836 11.0982 3.80451 10.992C3.91067 10.8859 4.0474 10.8156 4.19551 10.7911C4.34363 10.7666 4.49569 10.7891 4.63037 10.8555C4.76504 10.9218 4.87556 11.0287 4.94641 11.161C5.01726 11.2934 5.04489 11.4446 5.02543 11.5935C5.00488 11.7505 4.93301 11.8965 4.82098 12.0085C4.70895 12.1205 4.56305 12.1924 4.40595 12.2129ZM4.40595 8.61918C4.25709 8.63864 4.10588 8.61101 3.97352 8.54016C3.84117 8.46931 3.73432 8.35879 3.66798 8.22411C3.60164 8.08944 3.57913 7.93738 3.60362 7.78926C3.62811 7.64115 3.69836 7.50442 3.80451 7.39826C3.91067 7.29211 4.0474 7.22186 4.19551 7.19737C4.34363 7.17288 4.49569 7.19539 4.63037 7.26173C4.76504 7.32807 4.87556 7.43492 4.94641 7.56727C5.01726 7.69963 5.04489 7.85084 5.02543 7.9997C5.00488 8.1568 4.93301 8.3027 4.82098 8.41473C4.70895 8.52676 4.56305 8.59863 4.40595 8.61918ZM4.40595 5.02543C4.25709 5.04489 4.10588 5.01726 3.97352 4.94641C3.84117 4.87556 3.73432 4.76504 3.66798 4.63037C3.60164 4.49569 3.57913 4.34363 3.60362 4.19551C3.62811 4.0474 3.69836 3.91067 3.80451 3.80451C3.91067 3.69836 4.0474 3.62811 4.19551 3.60362C4.34363 3.57913 4.49569 3.60164 4.63037 3.66798C4.76504 3.73432 4.87556 3.84117 4.94641 3.97352C5.01726 4.10588 5.04489 4.25709 5.02543 4.40595C5.00488 4.56305 4.93301 4.70895 4.82098 4.82098C4.70895 4.93301 4.56305 5.00488 4.40595 5.02543ZM7.9997 15.8067C7.85085 15.8261 7.69963 15.7985 7.56727 15.7277C7.43492 15.6568 7.32807 15.5463 7.26173 15.4116C7.19539 15.2769 7.17288 15.1249 7.19737 14.9768C7.22186 14.8286 7.29211 14.6919 7.39826 14.5858C7.50442 14.4796 7.64115 14.4094 7.78926 14.3849C7.93738 14.3604 8.08944 14.3829 8.22412 14.4492C8.35879 14.5156 8.46931 14.6224 8.54016 14.7548C8.61101 14.8871 8.63864 15.0383 8.61918 15.1872C8.59863 15.3443 8.52676 15.4902 8.41473 15.6022C8.3027 15.7143 8.1568 15.7861 7.9997 15.8067ZM7.9997 12.2129C7.85085 12.2324 7.69963 12.2048 7.56727 12.1339C7.43492 12.0631 7.32807 11.9525 7.26173 11.8179C7.19539 11.6832 7.17288 11.5311 7.19737 11.383C7.22186 11.2349 7.29211 11.0982 7.39826 10.992C7.50442 10.8859 7.64115 10.8156 7.78926 10.7911C7.93738 10.7666 8.08944 10.7891 8.22412 10.8555C8.35879 10.9218 8.46931 11.0287 8.54016 11.161C8.61101 11.2934 8.63864 11.4446 8.61918 11.5935C8.59863 11.7505 8.52676 11.8965 8.41473 12.0085C8.3027 12.1205 8.1568 12.1924 7.9997 12.2129ZM7.9997 8.61918C7.85085 8.63864 7.69963 8.61101 7.56727 8.54016C7.43492 8.46931 7.32807 8.35879 7.26173 8.22411C7.19539 8.08944 7.17288 7.93738 7.19737 7.78926C7.22186 7.64115 7.29211 7.50442 7.39826 7.39826C7.50442 7.29211 7.64115 7.22186 7.78926 7.19737C7.93738 7.17288 8.08944 7.19539 8.22412 7.26173C8.35879 7.32807 8.46931 7.43492 8.54016 7.56727C8.61101 7.69963 8.63864 7.85084 8.61918 7.9997C8.59863 8.1568 8.52676 8.3027 8.41473 8.41473C8.3027 8.52676 8.1568 8.59863 7.9997 8.61918ZM7.9997 5.02543C7.85085 5.04489 7.69963 5.01726 7.56727 4.94641C7.43492 4.87556 7.32807 4.76504 7.26173 4.63037C7.19539 4.49569 7.17288 4.34363 7.19737 4.19551C7.22186 4.0474 7.29211 3.91067 7.39826 3.80451C7.50442 3.69836 7.64115 3.62811 7.78926 3.60362C7.93738 3.57913 8.08944 3.60164 8.22412 3.66798C8.35879 3.73432 8.46931 3.84117 8.54016 3.97352C8.61101 4.10588 8.63864 4.25709 8.61918 4.40595C8.59863 4.56305 8.52676 4.70895 8.41473 4.82098C8.3027 4.93301 8.1568 5.00488 7.9997 5.02543ZM11.5935 19.4004C11.4446 19.4199 11.2934 19.3923 11.161 19.3214C11.0287 19.2506 10.9218 19.14 10.8555 19.0054C10.7891 18.8707 10.7666 18.7186 10.7911 18.5705C10.8156 18.4224 10.8859 18.2857 10.992 18.1795C11.0982 18.0734 11.2349 18.0031 11.383 17.9786C11.5311 17.9541 11.6832 17.9766 11.8179 18.043C11.9525 18.1093 12.0631 18.2162 12.1339 18.3485C12.2048 18.4809 12.2324 18.6321 12.2129 18.781C12.1924 18.938 12.1205 19.084 12.0085 19.196C11.8965 19.308 11.7505 19.3799 11.5935 19.4004ZM11.5935 15.8067C11.4446 15.8261 11.2934 15.7985 11.161 15.7277C11.0287 15.6568 10.9218 15.5463 10.8555 15.4116C10.7891 15.2769 10.7666 15.1249 10.7911 14.9768C10.8156 14.8286 10.8859 14.6919 10.992 14.5858C11.0982 14.4796 11.2349 14.4094 11.383 14.3849C11.5311 14.3604 11.6832 14.3829 11.8179 14.4492C11.9525 14.5156 12.0631 14.6224 12.1339 14.7548C12.2048 14.8871 12.2324 15.0383 12.2129 15.1872C12.1924 15.3443 12.1205 15.4902 12.0085 15.6022C11.8965 15.7143 11.7505 15.7861 11.5935 15.8067ZM11.5935 12.2129C11.4446 12.2324 11.2934 12.2048 11.161 12.1339C11.0287 12.0631 10.9218 11.9525 10.8555 11.8179C10.7891 11.6832 10.7666 11.5311 10.7911 11.383C10.8156 11.2349 10.8859 11.0982 10.992 10.992C11.0982 10.8859 11.2349 10.8156 11.383 10.7911C11.5311 10.7666 11.6832 10.7891 11.8179 10.8555C11.9525 10.9218 12.0631 11.0287 12.1339 11.161C12.2048 11.2934 12.2324 11.4446 12.2129 11.5935C12.1924 11.7505 12.1205 11.8965 12.0085 12.0085C11.8965 12.1205 11.7505 12.1924 11.5935 12.2129Z" fill="white"/>
<path d="M12.0092 8.41505C12.289 8.13524 12.2879 7.68043 12.0067 7.39922C11.7255 7.118 11.2706 7.11686 10.9908 7.39668C10.711 7.67649 10.7122 8.13129 10.9934 8.41251C11.2746 8.69372 11.7294 8.69486 12.0092 8.41505Z" fill="white"/>
<path d="M11.5935 5.02543C11.4446 5.04489 11.2934 5.01726 11.161 4.94641C11.0287 4.87556 10.9218 4.76504 10.8555 4.63036C10.7891 4.49569 10.7666 4.34363 10.7911 4.19551C10.8156 4.0474 10.8859 3.91067 10.992 3.80451C11.0982 3.69836 11.2349 3.62811 11.383 3.60362C11.5311 3.57913 11.6832 3.60164 11.8179 3.66798C11.9525 3.73432 12.0631 3.84117 12.1339 3.97352C12.2048 4.10588 12.2324 4.25709 12.2129 4.40595C12.1924 4.56305 12.1205 4.70895 12.0085 4.82098C11.8964 4.93301 11.7505 5.00488 11.5935 5.02543ZM17.9688 17.9688C17.8266 17.9688 17.6876 18.0109 17.5694 18.0899C17.4513 18.1689 17.3591 18.2811 17.3047 18.4125C17.2503 18.5438 17.2361 18.6883 17.2638 18.8277C17.2916 18.9672 17.36 19.0952 17.4605 19.1957C17.561 19.2963 17.6891 19.3647 17.8285 19.3925C17.968 19.4202 18.1125 19.406 18.2438 19.3516C18.3752 19.2972 18.4874 19.205 18.5664 19.0868C18.6454 18.9686 18.6875 18.8297 18.6875 18.6875C18.6875 18.4969 18.6118 18.3141 18.477 18.1793C18.3422 18.0445 18.1594 17.9688 17.9688 17.9688ZM17.9688 14.375C17.8266 14.375 17.6876 14.4172 17.5694 14.4961C17.4513 14.5751 17.3591 14.6874 17.3047 14.8187C17.2503 14.95 17.2361 15.0946 17.2638 15.234C17.2916 15.3734 17.36 15.5015 17.4605 15.602C17.561 15.7025 17.6891 15.771 17.8285 15.7987C17.968 15.8264 18.1125 15.8122 18.2438 15.7578C18.3752 15.7034 18.4874 15.6113 18.5664 15.4931C18.6454 15.3749 18.6875 15.2359 18.6875 15.0938C18.6875 14.9031 18.6118 14.7203 18.477 14.5855C18.3422 14.4507 18.1594 14.375 17.9688 14.375ZM17.9688 10.7813C17.8266 10.7813 17.6876 10.8234 17.5694 10.9024C17.4513 10.9814 17.3591 11.0936 17.3047 11.225C17.2503 11.3563 17.2361 11.5008 17.2638 11.6402C17.2916 11.7797 17.36 11.9077 17.4605 12.0082C17.561 12.1088 17.6891 12.1772 17.8285 12.205C17.968 12.2327 18.1125 12.2185 18.2438 12.1641C18.3752 12.1097 18.4874 12.0175 18.5664 11.8993C18.6454 11.7811 18.6875 11.6422 18.6875 11.5C18.6875 11.3094 18.6118 11.1266 18.477 10.9918C18.3422 10.857 18.1594 10.7813 17.9688 10.7813ZM15.0938 17.9688C14.9516 17.9688 14.8126 18.0109 14.6944 18.0899C14.5763 18.1689 14.4841 18.2811 14.4297 18.4125C14.3753 18.5438 14.3611 18.6883 14.3888 18.8277C14.4166 18.9672 14.485 19.0952 14.5855 19.1957C14.686 19.2963 14.8141 19.3647 14.9535 19.3925C15.093 19.4202 15.2375 19.406 15.3688 19.3516C15.5002 19.2972 15.6124 19.205 15.6914 19.0868C15.7704 18.9686 15.8125 18.8297 15.8125 18.6875C15.8125 18.4969 15.7368 18.3141 15.602 18.1793C15.4672 18.0445 15.2844 17.9688 15.0938 17.9688ZM15.0938 14.375C14.9516 14.375 14.8126 14.4172 14.6944 14.4961C14.5763 14.5751 14.4841 14.6874 14.4297 14.8187C14.3753 14.95 14.3611 15.0946 14.3888 15.234C14.4166 15.3734 14.485 15.5015 14.5855 15.602C14.686 15.7025 14.8141 15.771 14.9535 15.7987C15.093 15.8264 15.2375 15.8122 15.3688 15.7578C15.5002 15.7034 15.6124 15.6113 15.6914 15.4931C15.7704 15.3749 15.8125 15.2359 15.8125 15.0938C15.8125 14.9031 15.7368 14.7203 15.602 14.5855C15.4672 14.4507 15.2844 14.375 15.0938 14.375ZM15.0938 10.7813C14.9516 10.7813 14.8126 10.8234 14.6944 10.9024C14.5763 10.9814 14.4841 11.0936 14.4297 11.225C14.3753 11.3563 14.3611 11.5008 14.3888 11.6402C14.4166 11.7797 14.485 11.9077 14.5855 12.0082C14.686 12.1088 14.8141 12.1772 14.9535 12.205C15.093 12.2327 15.2375 12.2185 15.3688 12.1641C15.5002 12.1097 15.6124 12.0175 15.6914 11.8993C15.7704 11.7811 15.8125 11.6422 15.8125 11.5C15.8125 11.3094 15.7368 11.1266 15.602 10.9918C15.4672 10.857 15.2844 10.7813 15.0938 10.7813Z" fill="white"/>
</svg>
