<svg width="23" height="23" viewBox="0 0 23 23" fill="none" xmlns="http://www.w3.org/2000/svg">
<path d="M19.0508 0.794816H9.09072V0.769978C9.09072 0.345397 8.74532 0 8.32074 0H5.93629C5.51171 0 5.16631 0.345397 5.16631 0.769978V0.794816H3.94925C3.30555 0.794816 2.78186 1.3185 2.78186 1.9622V21.8326C2.78186 22.4763 3.30555 23 3.94925 23H19.0508C19.6945 23 20.2181 22.4763 20.2181 21.8326V1.9622C20.2181 1.3185 19.6945 0.794816 19.0508 0.794816ZM5.91145 0.769978C5.91145 0.756268 5.92263 0.74514 5.93629 0.74514H8.32074C8.3344 0.74514 8.34558 0.756268 8.34558 0.769978V5.33347L7.29513 4.80824C7.24272 4.78201 7.18559 4.7689 7.12851 4.7689C7.07144 4.7689 7.01431 4.78201 6.9619 4.80824L5.91145 5.33347V0.769978ZM19.473 21.8326C19.473 22.0654 19.2836 22.2549 19.0508 22.2549H3.94925C3.71642 22.2549 3.527 22.0654 3.527 21.8326V1.9622C3.527 1.72937 3.71642 1.53996 3.94925 1.53996H5.16631V5.93629C5.16631 6.06539 5.23317 6.18531 5.34301 6.25322C5.45294 6.32118 5.5901 6.32729 5.70554 6.26951L7.12856 5.558L8.55158 6.26951C8.60419 6.29579 8.66127 6.30886 8.7182 6.30886C8.7863 6.30886 8.85421 6.29018 8.91407 6.25322C9.0239 6.18531 9.09077 6.06539 9.09077 5.93629V1.53996H19.0508C19.2836 1.53996 19.4731 1.72937 19.4731 1.9622V21.8326H19.473Z" fill="white"/>
<path d="M17.0374 14.2525C17.0371 14.249 17.037 14.2455 17.0367 14.2421C17.0359 14.2346 17.0346 14.2272 17.0333 14.2198C17.0325 14.2147 17.0318 14.2096 17.0307 14.2046C17.0297 14.1996 17.0282 14.1947 17.027 14.1898C17.0251 14.1824 17.0233 14.175 17.0209 14.1678C17.0199 14.1647 17.0186 14.1615 17.0175 14.1583C17.0144 14.1496 17.0112 14.1409 17.0075 14.1325C17.0072 14.1319 17.0071 14.1312 17.0068 14.1306L15.4492 10.6262V10.283H15.8715C16.0773 10.283 16.2441 10.1162 16.2441 9.91041C16.2441 9.70465 16.0773 9.53784 15.8715 9.53784H11.8726V9.02945C12.3341 8.87357 12.6674 8.43682 12.6674 7.92337C12.6674 7.27967 12.1437 6.75598 11.5 6.75598C10.8563 6.75598 10.3326 7.27967 10.3326 7.92337C10.3326 8.43682 10.6659 8.87357 11.1274 9.02945V9.53784H7.12851C6.9227 9.53784 6.75594 9.70465 6.75594 9.91041C6.75594 10.1162 6.9227 10.283 7.12851 10.283H7.55075V10.6262L5.99321 14.1306C5.99291 14.1312 5.99271 14.1319 5.99247 14.1326C5.98879 14.141 5.98561 14.1496 5.98258 14.1583C5.98144 14.1614 5.9801 14.1646 5.97905 14.1678C5.97672 14.175 5.97493 14.1824 5.97304 14.1898C5.97175 14.1947 5.97031 14.1996 5.96927 14.2046C5.96822 14.2096 5.96758 14.2147 5.96668 14.2198C5.96544 14.2272 5.9641 14.2346 5.96331 14.2421C5.96296 14.2455 5.96286 14.249 5.96261 14.2525C5.96187 14.2616 5.96127 14.2707 5.96122 14.2798C5.96122 14.2805 5.96112 14.2812 5.96112 14.2819C5.96112 15.1447 6.84138 15.8467 7.92332 15.8467C9.00527 15.8467 9.88553 15.1447 9.88553 14.2819C9.88553 14.2812 9.88543 14.2805 9.88543 14.2798C9.88538 14.2707 9.88478 14.2616 9.88404 14.2525C9.88379 14.249 9.88369 14.2455 9.88334 14.2421C9.88255 14.2346 9.8812 14.2272 9.87996 14.2198C9.87912 14.2147 9.87842 14.2096 9.87738 14.2046C9.87634 14.1996 9.87485 14.1947 9.8736 14.1898C9.87172 14.1824 9.86993 14.175 9.86759 14.1678C9.86655 14.1647 9.86526 14.1615 9.86412 14.1583C9.86104 14.1496 9.85786 14.1409 9.85418 14.1325C9.85388 14.1319 9.85373 14.1312 9.85344 14.1306L8.29589 10.6262V10.283H11.1274V13.5732C10.6659 13.7291 10.3326 14.1659 10.3326 14.6793V17.486H9.51296C9.30715 17.486 9.14039 17.6528 9.14039 17.8586C9.14039 18.0643 9.30715 18.2311 9.51296 18.2311H13.487C13.6928 18.2311 13.8596 18.0643 13.8596 17.8586C13.8596 17.6528 13.6928 17.486 13.487 17.486H12.6674V14.6793C12.6674 14.1659 12.3341 13.7291 11.8726 13.5732V10.283H14.7041V10.6262L13.1466 14.1306C13.1463 14.1312 13.1461 14.1319 13.1458 14.1326C13.1421 14.141 13.139 14.1496 13.1359 14.1583C13.1348 14.1614 13.1334 14.1646 13.1324 14.1678C13.1301 14.175 13.1283 14.1824 13.1264 14.1898C13.1251 14.1947 13.1237 14.1996 13.1226 14.2046C13.1216 14.2096 13.1209 14.2147 13.12 14.2198C13.1188 14.2272 13.1174 14.2346 13.1167 14.2421C13.1163 14.2455 13.1162 14.249 13.116 14.2525C13.1152 14.2616 13.1146 14.2707 13.1146 14.2798C13.1146 14.2805 13.1145 14.2812 13.1145 14.2819C13.1145 15.1447 13.9947 15.8467 15.0767 15.8467C16.1586 15.8467 17.0389 15.1447 17.0389 14.2819C17.0389 14.2812 17.0388 14.2805 17.0388 14.2798C17.0387 14.2707 17.0381 14.2616 17.0374 14.2525ZM11.5 7.50112C11.7328 7.50112 11.9222 7.69054 11.9222 7.92337C11.9222 8.1562 11.7328 8.34561 11.5 8.34561C11.2672 8.34561 11.0778 8.1562 11.0778 7.92337C11.0778 7.69054 11.2672 7.50112 11.5 7.50112ZM7.92332 11.6226L8.93965 13.9093H6.90695L7.92332 11.6226ZM7.92332 15.1016C7.46124 15.1016 7.04942 14.9175 6.84411 14.6545H9.00249C8.79722 14.9175 8.38541 15.1016 7.92332 15.1016ZM11.9222 17.486H11.0778V14.6793C11.0778 14.4465 11.2672 14.2571 11.5 14.2571C11.7328 14.2571 11.9222 14.4465 11.9222 14.6793V17.486ZM15.0767 11.6226L16.093 13.9093H14.0603L15.0767 11.6226ZM15.0767 15.1016C14.6146 15.1016 14.2028 14.9175 13.9975 14.6545H16.1558C15.9506 14.9175 15.5388 15.1016 15.0767 15.1016Z" fill="white"/>
</svg>
