<svg width="23" height="23" viewBox="0 0 23 23" fill="none" xmlns="http://www.w3.org/2000/svg">
<path d="M15.1279 7.2324L6.74863 10.9317C6.2783 11.1473 6.43642 11.8602 6.95392 11.8602H10.961C11.0086 11.8602 11.0543 11.8792 11.088 11.9129C11.1217 11.9466 11.1406 11.9923 11.1406 12.0399V16.0461C11.1406 16.5636 11.8594 16.7199 12.0741 16.2509L15.7676 7.87208C15.8089 7.78256 15.8218 7.6825 15.8045 7.58542C15.7872 7.48834 15.7405 7.3989 15.6708 7.32917C15.6011 7.25944 15.5117 7.21277 15.4146 7.19547C15.3175 7.17816 15.2174 7.19105 15.1279 7.2324Z" fill="white"/>
<path d="M20.125 11.5C20.125 6.73828 16.2617 2.875 11.5 2.875C6.73828 2.875 2.875 6.73828 2.875 11.5C2.875 16.2617 6.73828 20.125 11.5 20.125C16.2617 20.125 20.125 16.2617 20.125 11.5Z" stroke="white" stroke-miterlimit="10"/>
</svg>
