<svg width="25" height="25" viewBox="0 0 25 25" fill="none" xmlns="http://www.w3.org/2000/svg">
<path d="M19.7423 6.70588C19.7423 6.70588 19.6046 1.78861 19.5983 1.72943C19.5887 1.63822 19.565 1.54808 19.5269 1.46173C19.4299 1.24185 19.2531 1.07288 19.0291 0.98594L17.5721 0.420762C17.348 0.333824 17.1035 0.339374 16.8837 0.436292C16.6638 0.533264 16.4948 0.710076 16.4079 0.934172L15.4081 3.51115C15.2555 3.47449 15.1011 3.443 14.9449 3.41664V2.44484C14.9449 1.09673 13.8481 0 12.5 0C11.1519 0 10.0551 1.09673 10.0551 2.44484V3.41669C9.8985 3.44311 9.74362 3.4747 9.59072 3.51147L8.59085 0.934172C8.50391 0.710076 8.33494 0.533264 8.11506 0.436292C7.89524 0.339321 7.65075 0.33377 7.4266 0.420762L5.96963 0.98594C5.74558 1.07288 5.56877 1.24179 5.4718 1.46173C5.43508 1.54498 5.41171 1.63176 5.40141 1.71966C5.39415 1.78162 5.25667 6.70769 5.25667 6.70769C4.63732 7.74492 4.28076 8.9564 4.28076 10.2497V23.4835C4.28076 24.3197 4.961 24.9999 5.79719 24.9999H19.2028C20.039 24.9999 20.7192 24.3197 20.7192 23.4835V10.2498C20.7192 8.95565 20.3623 7.74348 19.7423 6.70588ZM18.9079 5.58305C18.7486 5.40848 18.5803 5.24228 18.4041 5.08474L18.8582 3.9142L18.9079 5.58305ZM17.1542 1.22375C17.174 1.17273 17.2317 1.14738 17.2825 1.16713L18.7395 1.73231C18.7712 1.74458 18.7869 1.76764 18.7944 1.78472C18.802 1.80185 18.8084 1.82896 18.7961 1.86066L17.7473 4.56466C17.2647 4.22768 16.7377 3.95022 16.1766 3.74363L17.1542 1.22375ZM12.5001 0.800536C13.3177 0.800536 13.9976 1.40046 14.1233 2.18322C13.6878 1.79603 13.1162 1.56206 12.5 1.56206C11.8959 1.56206 11.3255 1.78007 10.8777 2.17837C11.0054 1.398 11.6841 0.800536 12.5001 0.800536ZM13.9949 3.32308C13.9266 3.3211 11.0734 3.3211 11.0051 3.32308C11.0856 3.14712 11.1966 2.98515 11.3373 2.84409C11.6479 2.53359 12.0608 2.3626 12.5 2.3626C13.1535 2.3626 13.7325 2.75315 13.9949 3.32308ZM6.20429 1.78472C6.21187 1.76758 6.22756 1.74458 6.25921 1.73231L7.71618 1.16713C7.76715 1.14733 7.82479 1.17279 7.84454 1.22375L8.82231 3.74411C8.26119 3.95075 7.73422 4.22833 7.25171 4.5654L6.20258 1.86066C6.19031 1.82896 6.19671 1.8019 6.20429 1.78472ZM6.14057 3.9143L6.5949 5.08559C6.41867 5.2433 6.25035 5.4096 6.09099 5.58427L6.14057 3.9143ZM19.9187 23.4836C19.9187 23.8783 19.5975 24.1995 19.2028 24.1995H5.79724C5.40253 24.1995 5.08135 23.8783 5.08135 23.4836V10.2498C5.08135 6.86999 7.83098 4.12036 11.2108 4.12036H13.7893C17.1691 4.12036 19.9188 6.86999 19.9188 10.2498V23.4836H19.9187Z" fill="#192C4A"/>
<path d="M7.06892 13.5413C6.42278 13.5413 5.89709 14.0669 5.89709 14.7131V22.2557C5.89709 22.9018 6.42278 23.4275 7.06892 23.4275H17.9313C18.5774 23.4275 19.1031 22.9018 19.1031 22.2557V14.7131C19.1031 14.0669 18.5774 13.5413 17.9313 13.5413H7.06892ZM17.9313 22.627H7.06892C6.8642 22.627 6.69763 22.4604 6.69763 22.2557V17.2247H16.7738V18.135H17.5743V17.2247H18.3026V22.2557C18.3026 22.4604 18.136 22.627 17.9313 22.627ZM18.3026 14.7131V16.4242H6.69763V14.7131C6.69763 14.5084 6.8642 14.3418 7.06892 14.3418H17.9313C18.136 14.3418 18.3026 14.5084 18.3026 14.7131Z" fill="#192C4A"/>
<path d="M15.0407 5.76599H9.95935V8.05168H15.0407V5.76599ZM14.2401 7.25115H10.7599V6.56653H14.2401V7.25115Z" fill="#192C4A"/>
</svg>
